<svg width="38" height="38" viewBox="0 0 38 38" fill="none" xmlns="http://www.w3.org/2000/svg">
<g id="Icon">
<path id="Vector" d="M15.2373 3.73597C9.4992 4.85586 4.87526 9.46822 3.74381 15.1889C1.60791 25.9838 11.3465 34.0309 18.6836 32.8937C21.0619 32.5242 22.228 29.7418 21.137 27.6001C19.8035 24.9794 21.7085 21.9198 24.6526 21.9198H29.2534C31.32 21.9198 32.9941 20.2111 32.9999 18.1503C32.971 9.05259 24.693 1.89449 15.2373 3.73597ZM8.98543 21.9198C7.96366 21.9198 7.13816 21.0944 7.13816 20.0726C7.13816 19.0508 7.96366 18.2253 8.98543 18.2253C10.0072 18.2253 10.8327 19.0508 10.8327 20.0726C10.8327 21.0944 10.0072 21.9198 8.98543 21.9198ZM10.8327 14.5308C9.81093 14.5308 8.98543 13.7054 8.98543 12.6836C8.98543 11.6618 9.81093 10.8363 10.8327 10.8363C11.8545 10.8363 12.68 11.6618 12.68 12.6836C12.68 13.7054 11.8545 14.5308 10.8327 14.5308ZM18.2218 10.8363C17.2 10.8363 16.3745 10.0109 16.3745 8.98909C16.3745 7.96733 17.2 7.14184 18.2218 7.14184C19.2435 7.14184 20.069 7.96733 20.069 8.98909C20.069 10.0109 19.2435 10.8363 18.2218 10.8363ZM25.6108 14.5308C24.5891 14.5308 23.7636 13.7054 23.7636 12.6836C23.7636 11.6618 24.5891 10.8363 25.6108 10.8363C26.6326 10.8363 27.4581 11.6618 27.4581 12.6836C27.4581 13.7054 26.6326 14.5308 25.6108 14.5308Z" fill="#9251F7"/>
</g>
</svg>
