<svg width="32" height="32" viewBox="0 0 32 32" fill="currentColor" xmlns="http://www.w3.org/2000/svg">

<path id="Icon" d="M16.0003 27.9971C14.3162 26.5606 12.7552 24.9858 11.3337 23.2891C9.20033 20.7411 6.66699 16.9465 6.66699 13.3305C6.6651 9.55387 8.93932 6.14832 12.4284 4.703C15.9175 3.25768 19.9338 4.05746 22.603 6.72914C24.3583 8.47661 25.3415 10.8537 25.3337 13.3305C25.3337 16.9465 22.8003 20.7411 20.667 23.2891C19.2454 24.9858 17.6844 26.5606 16.0003 27.9971ZM16.0003 9.33047C14.5713 9.33047 13.2508 10.0929 12.5362 11.3305C11.8217 12.5681 11.8217 14.0929 12.5362 15.3305C13.2508 16.5681 14.5713 17.3305 16.0003 17.3305C18.2095 17.3305 20.0003 15.5396 20.0003 13.3305C20.0003 11.1213 18.2095 9.33047 16.0003 9.33047Z"/>

</svg>
