<svg width="32" height="32" viewBox="0 0 32 32" fill="white" xmlns="http://www.w3.org/2000/svg">
<path d="M4.75 16C4.75 9.7868 9.7868 4.75 16 4.75C18.7038 4.75 21.1843 5.70322 23.1248 7.29321C19.1155 7.6913 15.9031 10.7953 15.3382 14.7535C14.7056 15.1595 14.146 15.6743 13.6834 16.2711C13.1381 16.0314 12.534 15.8984 11.8998 15.8984C10.0094 15.8984 8.38757 17.0793 7.79174 18.7478C7.65243 19.1378 7.85572 19.567 8.24581 19.7063C8.63589 19.8456 9.06505 19.6423 9.20436 19.2522C9.58626 18.1829 10.6412 17.3984 11.8998 17.3984C12.4972 17.3984 13.0484 17.575 13.5039 17.8751L14.1482 18.2994L14.5542 17.6435C15.4524 16.1926 17.0027 15.25 18.75 15.25C20.7211 15.25 22.4446 16.4515 23.2584 18.227L23.5351 18.8308L24.1679 18.6291C24.3348 18.5759 24.5134 18.5469 24.7002 18.5469C25.3334 18.5469 25.8889 18.8827 26.197 19.3896C26.4122 19.7436 26.8736 19.856 27.2275 19.6409C27.5815 19.4257 27.6939 18.9643 27.4788 18.6104C26.9099 17.6746 25.8787 17.0469 24.7002 17.0469C24.581 17.0469 24.4631 17.0533 24.347 17.0659C23.2211 15.0916 21.1447 13.75 18.75 13.75C18.1547 13.75 17.579 13.833 17.0326 13.988C17.9045 10.963 20.6943 8.75 24 8.75C24.3074 8.75 24.6099 8.76909 24.9066 8.80606L26.8731 9.05112L25.5616 7.56547C23.2265 4.92019 19.8078 3.25 16 3.25C8.95837 3.25 3.25 8.95837 3.25 16C3.25 23.0416 8.95837 28.75 16 28.75C19.8078 28.75 23.2265 27.0798 25.5616 24.4345L26.8731 22.9489L24.9066 23.1939C24.6099 23.2309 24.3074 23.25 24 23.25C21.4384 23.25 19.1865 21.9221 17.8958 19.9135C17.6719 19.565 17.2079 19.4641 16.8594 19.688C16.5109 19.9119 16.41 20.3759 16.6339 20.7244C18.0404 22.9132 20.3983 24.4359 23.1249 24.7068C21.1844 26.2968 18.7038 27.25 16 27.25C9.7868 27.25 4.75 22.2132 4.75 16Z"/>
</svg>
