<svg width="32" height="32" viewBox="0 0 32 32" fill="black" xmlns="http://www.w3.org/2000/svg">
<path d="M16.7501 2C16.7501 1.58579 16.4143 1.25 16.0001 1.25C15.5859 1.25 15.2501 1.58579 15.2501 2V4C15.2501 4.41421 15.5859 4.75 16.0001 4.75C16.4143 4.75 16.7501 4.41421 16.7501 4V2Z" />
<path d="M4.24817 8.34446C3.88945 8.13735 3.43076 8.26026 3.22365 8.61898C3.01655 8.9777 3.13945 9.43639 3.49817 9.6435L5.23022 10.6435C5.58894 10.8506 6.04764 10.7277 6.25474 10.369C6.46185 10.0103 6.33894 9.55157 5.98022 9.34446L4.24817 8.34446Z" />
<path d="M28.7734 8.62401C28.9806 8.98273 28.8576 9.44142 28.4989 9.64852L26.7669 10.6485C26.4082 10.8556 25.9495 10.7327 25.7424 10.374C25.5352 10.0153 25.6582 9.55659 26.0169 9.34949L27.7489 8.34949C28.1076 8.14238 28.5663 8.26529 28.7734 8.62401Z" />
<path d="M26.7648 21.3445C26.4061 21.1374 25.9474 21.2603 25.7403 21.619C25.5332 21.9777 25.6561 22.4364 26.0148 22.6435L27.7469 23.6435C28.1056 23.8506 28.5643 23.7277 28.7714 23.369C28.9785 23.0103 28.8556 22.5516 28.4969 22.3445L26.7648 21.3445Z" />
<path d="M6.25678 21.624C6.46389 21.9827 6.34098 22.4414 5.98226 22.6485L4.25021 23.6485C3.89149 23.8556 3.4328 23.7327 3.22569 23.374C3.01859 23.0153 3.14149 22.5566 3.50021 22.3495L5.23226 21.3495C5.59098 21.1424 6.04967 21.2653 6.25678 21.624Z" />
<path d="M16.7501 28C16.7501 27.5858 16.4143 27.25 16.0001 27.25C15.5859 27.25 15.2501 27.5858 15.2501 28V30C15.2501 30.4142 15.5859 30.75 16.0001 30.75C16.4143 30.75 16.7501 30.4142 16.7501 30V28Z" />
<path d="M19.1526 15C19.6207 15 20.0074 15.3821 19.9285 15.8435C19.8658 16.2096 19.7624 16.5686 19.6195 16.9134C19.3682 17.52 19 18.0712 18.5357 18.5355C18.0714 18.9998 17.5202 19.3681 16.9135 19.6194C16.5687 19.7622 16.2098 19.8657 15.8436 19.9283C15.3822 20.0073 15.0001 19.6206 15.0001 19.1525C15.0001 18.6844 15.3856 18.3156 15.8384 18.1969C15.9833 18.1589 16.1258 18.111 16.2649 18.0534C16.6659 17.8873 17.0302 17.6439 17.3371 17.337C17.644 17.0301 17.8875 16.6657 18.0535 16.2648C18.1111 16.1257 18.159 15.9832 18.1971 15.8382C18.3158 15.3855 18.6846 15 19.1526 15Z" />
<path fill-rule="evenodd" clip-rule="evenodd" d="M23 16C23 19.866 19.866 23 16 23C12.134 23 9 19.866 9 16C9 12.134 12.134 9 16 9C19.866 9 23 12.134 23 16ZM21.5 16C21.5 19.0376 19.0376 21.5 16 21.5C12.9624 21.5 10.5 19.0376 10.5 16C10.5 12.9624 12.9624 10.5 16 10.5C19.0376 10.5 21.5 12.9624 21.5 16Z" />
</svg>
